<mxfile host="app.diagrams.net" modified="2023-04-23T05:23:05.912Z" agent="Mozilla/5.0 (Windows NT 10.0; Win64; x64) AppleWebKit/537.36 (KHTML, like Gecko) Chrome/112.0.0.0 Safari/537.36" etag="FYPl_5lJlc5c1ZeVN9Tm" version="21.1.8" type="device">
  <diagram id="C5RBs43oDa-KdzZeNtuy" name="Page-1">
    <mxGraphModel dx="3027" dy="2279" grid="1" gridSize="10" guides="1" tooltips="1" connect="1" arrows="1" fold="1" page="1" pageScale="1" pageWidth="827" pageHeight="1169" math="0" shadow="0">
      <root>
        <mxCell id="WIyWlLk6GJQsqaUBKTNV-0" />
        <mxCell id="WIyWlLk6GJQsqaUBKTNV-1" parent="WIyWlLk6GJQsqaUBKTNV-0" />
        <mxCell id="zkfFHV4jXpPFQw0GAbJ--0" value="Tablero" style="swimlane;fontStyle=0;align=center;verticalAlign=top;childLayout=stackLayout;horizontal=1;startSize=26;horizontalStack=0;resizeParent=1;resizeLast=0;collapsible=1;marginBottom=0;rounded=0;shadow=0;strokeWidth=1;" parent="WIyWlLk6GJQsqaUBKTNV-1" vertex="1">
          <mxGeometry x="-290" y="-948" width="160" height="50" as="geometry">
            <mxRectangle x="230" y="140" width="160" height="26" as="alternateBounds" />
          </mxGeometry>
        </mxCell>
        <mxCell id="CMHXz8UwtuGH-618SURG-6" style="edgeStyle=orthogonalEdgeStyle;rounded=0;orthogonalLoop=1;jettySize=auto;html=1;entryX=1;entryY=0.5;entryDx=0;entryDy=0;" edge="1" parent="WIyWlLk6GJQsqaUBKTNV-1" source="CMHXz8UwtuGH-618SURG-0" target="zkfFHV4jXpPFQw0GAbJ--0">
          <mxGeometry relative="1" as="geometry" />
        </mxCell>
        <mxCell id="CMHXz8UwtuGH-618SURG-10" style="edgeStyle=orthogonalEdgeStyle;rounded=0;orthogonalLoop=1;jettySize=auto;html=1;" edge="1" parent="WIyWlLk6GJQsqaUBKTNV-1" source="CMHXz8UwtuGH-618SURG-0" target="CMHXz8UwtuGH-618SURG-4">
          <mxGeometry relative="1" as="geometry">
            <Array as="points" />
          </mxGeometry>
        </mxCell>
        <mxCell id="CMHXz8UwtuGH-618SURG-14" style="edgeStyle=orthogonalEdgeStyle;rounded=0;orthogonalLoop=1;jettySize=auto;html=1;entryX=0;entryY=1;entryDx=0;entryDy=0;" edge="1" parent="WIyWlLk6GJQsqaUBKTNV-1" source="CMHXz8UwtuGH-618SURG-0" target="CMHXz8UwtuGH-618SURG-3">
          <mxGeometry relative="1" as="geometry">
            <Array as="points">
              <mxPoint x="170" y="-768" />
            </Array>
          </mxGeometry>
        </mxCell>
        <mxCell id="CMHXz8UwtuGH-618SURG-24" style="edgeStyle=orthogonalEdgeStyle;rounded=0;orthogonalLoop=1;jettySize=auto;html=1;entryX=0.544;entryY=-0.03;entryDx=0;entryDy=0;entryPerimeter=0;" edge="1" parent="WIyWlLk6GJQsqaUBKTNV-1" source="CMHXz8UwtuGH-618SURG-0" target="CMHXz8UwtuGH-618SURG-5">
          <mxGeometry relative="1" as="geometry">
            <Array as="points">
              <mxPoint x="-63" y="-908" />
            </Array>
          </mxGeometry>
        </mxCell>
        <mxCell id="CMHXz8UwtuGH-618SURG-0" value="VentanasLights" style="swimlane;fontStyle=0;align=center;verticalAlign=top;childLayout=stackLayout;horizontal=1;startSize=26;horizontalStack=0;resizeParent=1;resizeLast=0;collapsible=1;marginBottom=0;rounded=0;shadow=0;strokeWidth=1;" vertex="1" parent="WIyWlLk6GJQsqaUBKTNV-1">
          <mxGeometry x="20" y="-948" width="160" height="50" as="geometry">
            <mxRectangle x="230" y="140" width="160" height="26" as="alternateBounds" />
          </mxGeometry>
        </mxCell>
        <mxCell id="CMHXz8UwtuGH-618SURG-16" style="edgeStyle=orthogonalEdgeStyle;rounded=0;orthogonalLoop=1;jettySize=auto;html=1;" edge="1" parent="WIyWlLk6GJQsqaUBKTNV-1" source="CMHXz8UwtuGH-618SURG-1">
          <mxGeometry relative="1" as="geometry">
            <mxPoint x="110" y="-898" as="targetPoint" />
          </mxGeometry>
        </mxCell>
        <mxCell id="CMHXz8UwtuGH-618SURG-18" style="edgeStyle=orthogonalEdgeStyle;rounded=0;orthogonalLoop=1;jettySize=auto;html=1;" edge="1" parent="WIyWlLk6GJQsqaUBKTNV-1" source="CMHXz8UwtuGH-618SURG-1">
          <mxGeometry relative="1" as="geometry">
            <mxPoint x="40" y="-898" as="targetPoint" />
            <Array as="points">
              <mxPoint x="40" y="-898" />
            </Array>
          </mxGeometry>
        </mxCell>
        <mxCell id="CMHXz8UwtuGH-618SURG-1" value="PanelTablero" style="swimlane;fontStyle=0;align=center;verticalAlign=top;childLayout=stackLayout;horizontal=1;startSize=26;horizontalStack=0;resizeParent=1;resizeLast=0;collapsible=1;marginBottom=0;rounded=0;shadow=0;strokeWidth=1;" vertex="1" parent="WIyWlLk6GJQsqaUBKTNV-1">
          <mxGeometry x="30" y="-738" width="160" height="50" as="geometry">
            <mxRectangle x="230" y="140" width="160" height="26" as="alternateBounds" />
          </mxGeometry>
        </mxCell>
        <mxCell id="CMHXz8UwtuGH-618SURG-8" style="edgeStyle=orthogonalEdgeStyle;rounded=0;orthogonalLoop=1;jettySize=auto;html=1;" edge="1" parent="WIyWlLk6GJQsqaUBKTNV-1" source="CMHXz8UwtuGH-618SURG-2">
          <mxGeometry relative="1" as="geometry">
            <mxPoint x="160" y="-688" as="targetPoint" />
          </mxGeometry>
        </mxCell>
        <mxCell id="CMHXz8UwtuGH-618SURG-2" value="Casillas" style="swimlane;fontStyle=0;align=center;verticalAlign=top;childLayout=stackLayout;horizontal=1;startSize=26;horizontalStack=0;resizeParent=1;resizeLast=0;collapsible=1;marginBottom=0;rounded=0;shadow=0;strokeWidth=1;" vertex="1" parent="WIyWlLk6GJQsqaUBKTNV-1">
          <mxGeometry x="290" y="-638" width="160" height="50" as="geometry">
            <mxRectangle x="230" y="140" width="160" height="26" as="alternateBounds" />
          </mxGeometry>
        </mxCell>
        <mxCell id="CMHXz8UwtuGH-618SURG-12" style="edgeStyle=orthogonalEdgeStyle;rounded=0;orthogonalLoop=1;jettySize=auto;html=1;entryX=1;entryY=0.75;entryDx=0;entryDy=0;" edge="1" parent="WIyWlLk6GJQsqaUBKTNV-1" source="CMHXz8UwtuGH-618SURG-3" target="CMHXz8UwtuGH-618SURG-0">
          <mxGeometry relative="1" as="geometry" />
        </mxCell>
        <mxCell id="CMHXz8UwtuGH-618SURG-3" value="PanelBotones" style="swimlane;fontStyle=0;align=center;verticalAlign=top;childLayout=stackLayout;horizontal=1;startSize=26;horizontalStack=0;resizeParent=1;resizeLast=0;collapsible=1;marginBottom=0;rounded=0;shadow=0;strokeWidth=1;" vertex="1" parent="WIyWlLk6GJQsqaUBKTNV-1">
          <mxGeometry x="290" y="-818" width="160" height="50" as="geometry">
            <mxRectangle x="620" y="170" width="160" height="26" as="alternateBounds" />
          </mxGeometry>
        </mxCell>
        <mxCell id="CMHXz8UwtuGH-618SURG-20" style="edgeStyle=orthogonalEdgeStyle;rounded=0;orthogonalLoop=1;jettySize=auto;html=1;entryX=0.75;entryY=0;entryDx=0;entryDy=0;" edge="1" parent="WIyWlLk6GJQsqaUBKTNV-1" source="CMHXz8UwtuGH-618SURG-4" target="CMHXz8UwtuGH-618SURG-0">
          <mxGeometry relative="1" as="geometry">
            <Array as="points">
              <mxPoint x="370" y="-968" />
              <mxPoint x="140" y="-968" />
            </Array>
          </mxGeometry>
        </mxCell>
        <mxCell id="CMHXz8UwtuGH-618SURG-4" value="PanelConfiguraciones" style="swimlane;fontStyle=0;align=center;verticalAlign=top;childLayout=stackLayout;horizontal=1;startSize=26;horizontalStack=0;resizeParent=1;resizeLast=0;collapsible=1;marginBottom=0;rounded=0;shadow=0;strokeWidth=1;" vertex="1" parent="WIyWlLk6GJQsqaUBKTNV-1">
          <mxGeometry x="290" y="-948" width="160" height="50" as="geometry">
            <mxRectangle x="620" y="170" width="160" height="26" as="alternateBounds" />
          </mxGeometry>
        </mxCell>
        <mxCell id="CMHXz8UwtuGH-618SURG-22" style="edgeStyle=orthogonalEdgeStyle;rounded=0;orthogonalLoop=1;jettySize=auto;html=1;entryX=0;entryY=0.75;entryDx=0;entryDy=0;" edge="1" parent="WIyWlLk6GJQsqaUBKTNV-1" source="CMHXz8UwtuGH-618SURG-5" target="CMHXz8UwtuGH-618SURG-0">
          <mxGeometry relative="1" as="geometry">
            <Array as="points">
              <mxPoint x="-120" y="-888" />
              <mxPoint y="-888" />
              <mxPoint y="-910" />
            </Array>
          </mxGeometry>
        </mxCell>
        <mxCell id="CMHXz8UwtuGH-618SURG-5" value="PanelSur" style="swimlane;fontStyle=0;align=center;verticalAlign=top;childLayout=stackLayout;horizontal=1;startSize=26;horizontalStack=0;resizeParent=1;resizeLast=0;collapsible=1;marginBottom=0;rounded=0;shadow=0;strokeWidth=1;" vertex="1" parent="WIyWlLk6GJQsqaUBKTNV-1">
          <mxGeometry x="-150" y="-668" width="160" height="50" as="geometry">
            <mxRectangle x="230" y="140" width="160" height="26" as="alternateBounds" />
          </mxGeometry>
        </mxCell>
        <mxCell id="CMHXz8UwtuGH-618SURG-7" value="logica" style="text;html=1;align=center;verticalAlign=middle;resizable=0;points=[];autosize=1;strokeColor=none;fillColor=none;" vertex="1" parent="WIyWlLk6GJQsqaUBKTNV-1">
          <mxGeometry x="-85" y="-950" width="50" height="30" as="geometry" />
        </mxCell>
        <mxCell id="CMHXz8UwtuGH-618SURG-9" value="casillas*" style="text;html=1;align=center;verticalAlign=middle;resizable=0;points=[];autosize=1;strokeColor=none;fillColor=none;" vertex="1" parent="WIyWlLk6GJQsqaUBKTNV-1">
          <mxGeometry x="190" y="-638" width="70" height="30" as="geometry" />
        </mxCell>
        <mxCell id="CMHXz8UwtuGH-618SURG-11" value="panelNorte" style="text;html=1;align=center;verticalAlign=middle;resizable=0;points=[];autosize=1;strokeColor=none;fillColor=none;" vertex="1" parent="WIyWlLk6GJQsqaUBKTNV-1">
          <mxGeometry x="200" y="-950" width="80" height="30" as="geometry" />
        </mxCell>
        <mxCell id="CMHXz8UwtuGH-618SURG-13" value="framePrincipal" style="text;html=1;align=center;verticalAlign=middle;resizable=0;points=[];autosize=1;strokeColor=none;fillColor=none;" vertex="1" parent="WIyWlLk6GJQsqaUBKTNV-1">
          <mxGeometry x="230" y="-888" width="100" height="30" as="geometry" />
        </mxCell>
        <mxCell id="CMHXz8UwtuGH-618SURG-15" value="panleEste" style="text;html=1;align=center;verticalAlign=middle;resizable=0;points=[];autosize=1;strokeColor=none;fillColor=none;" vertex="1" parent="WIyWlLk6GJQsqaUBKTNV-1">
          <mxGeometry x="180" y="-790" width="80" height="30" as="geometry" />
        </mxCell>
        <mxCell id="CMHXz8UwtuGH-618SURG-17" value="framePrincipal" style="text;html=1;align=center;verticalAlign=middle;resizable=0;points=[];autosize=1;strokeColor=none;fillColor=none;" vertex="1" parent="WIyWlLk6GJQsqaUBKTNV-1">
          <mxGeometry x="-50" y="-848" width="100" height="30" as="geometry" />
        </mxCell>
        <mxCell id="CMHXz8UwtuGH-618SURG-19" value="panelCentro&lt;br&gt;matriz[][]&lt;br&gt;Tablero" style="text;html=1;align=center;verticalAlign=middle;resizable=0;points=[];autosize=1;strokeColor=none;fillColor=none;" vertex="1" parent="WIyWlLk6GJQsqaUBKTNV-1">
          <mxGeometry x="45" y="-865" width="90" height="60" as="geometry" />
        </mxCell>
        <mxCell id="CMHXz8UwtuGH-618SURG-21" value="tamaño, dificultad" style="text;html=1;align=center;verticalAlign=middle;resizable=0;points=[];autosize=1;strokeColor=none;fillColor=none;" vertex="1" parent="WIyWlLk6GJQsqaUBKTNV-1">
          <mxGeometry x="180" y="-990" width="120" height="30" as="geometry" />
        </mxCell>
        <mxCell id="CMHXz8UwtuGH-618SURG-23" value="jugador" style="text;html=1;align=center;verticalAlign=middle;resizable=0;points=[];autosize=1;strokeColor=none;fillColor=none;" vertex="1" parent="WIyWlLk6GJQsqaUBKTNV-1">
          <mxGeometry x="-175" y="-768" width="60" height="30" as="geometry" />
        </mxCell>
        <mxCell id="CMHXz8UwtuGH-618SURG-25" value="Tablero.jugadas" style="text;html=1;align=center;verticalAlign=middle;resizable=0;points=[];autosize=1;strokeColor=none;fillColor=none;" vertex="1" parent="WIyWlLk6GJQsqaUBKTNV-1">
          <mxGeometry x="-125" y="-718" width="110" height="30" as="geometry" />
        </mxCell>
        <mxCell id="CMHXz8UwtuGH-618SURG-27" style="edgeStyle=orthogonalEdgeStyle;rounded=0;orthogonalLoop=1;jettySize=auto;html=1;entryX=0.25;entryY=1;entryDx=0;entryDy=0;" edge="1" parent="WIyWlLk6GJQsqaUBKTNV-1" target="CMHXz8UwtuGH-618SURG-3">
          <mxGeometry relative="1" as="geometry">
            <mxPoint x="-140" y="-563.0000000000005" as="sourcePoint" />
            <Array as="points">
              <mxPoint x="280" y="-563" />
              <mxPoint x="280" y="-738" />
              <mxPoint x="330" y="-738" />
            </Array>
          </mxGeometry>
        </mxCell>
        <mxCell id="CMHXz8UwtuGH-618SURG-33" style="edgeStyle=orthogonalEdgeStyle;rounded=0;orthogonalLoop=1;jettySize=auto;html=1;" edge="1" parent="WIyWlLk6GJQsqaUBKTNV-1">
          <mxGeometry relative="1" as="geometry">
            <mxPoint x="-410" y="-898" as="targetPoint" />
            <mxPoint x="-300" y="-563.0000000000005" as="sourcePoint" />
          </mxGeometry>
        </mxCell>
        <mxCell id="CMHXz8UwtuGH-618SURG-26" value="VentanaTop10" style="swimlane;fontStyle=0;align=center;verticalAlign=top;childLayout=stackLayout;horizontal=1;startSize=26;horizontalStack=0;resizeParent=1;resizeLast=0;collapsible=1;marginBottom=0;rounded=0;shadow=0;strokeWidth=1;" vertex="1" parent="WIyWlLk6GJQsqaUBKTNV-1">
          <mxGeometry x="-300" y="-585" width="160" height="50" as="geometry">
            <mxRectangle x="230" y="140" width="160" height="26" as="alternateBounds" />
          </mxGeometry>
        </mxCell>
        <mxCell id="CMHXz8UwtuGH-618SURG-28" value="listener" style="text;html=1;align=center;verticalAlign=middle;resizable=0;points=[];autosize=1;strokeColor=none;fillColor=none;" vertex="1" parent="WIyWlLk6GJQsqaUBKTNV-1">
          <mxGeometry x="-115" y="-590" width="60" height="30" as="geometry" />
        </mxCell>
        <mxCell id="CMHXz8UwtuGH-618SURG-29" value="Top10" style="swimlane;fontStyle=0;align=center;verticalAlign=top;childLayout=stackLayout;horizontal=1;startSize=26;horizontalStack=0;resizeParent=1;resizeLast=0;collapsible=1;marginBottom=0;rounded=0;shadow=0;strokeWidth=1;" vertex="1" parent="WIyWlLk6GJQsqaUBKTNV-1">
          <mxGeometry x="-480" y="-950" width="160" height="50" as="geometry">
            <mxRectangle x="230" y="140" width="160" height="26" as="alternateBounds" />
          </mxGeometry>
        </mxCell>
        <mxCell id="CMHXz8UwtuGH-618SURG-31" style="edgeStyle=orthogonalEdgeStyle;rounded=0;orthogonalLoop=1;jettySize=auto;html=1;entryX=0;entryY=0.5;entryDx=0;entryDy=0;" edge="1" parent="WIyWlLk6GJQsqaUBKTNV-1" source="CMHXz8UwtuGH-618SURG-30" target="CMHXz8UwtuGH-618SURG-29">
          <mxGeometry relative="1" as="geometry" />
        </mxCell>
        <mxCell id="CMHXz8UwtuGH-618SURG-30" value="RegistroTop10" style="swimlane;fontStyle=0;align=center;verticalAlign=top;childLayout=stackLayout;horizontal=1;startSize=26;horizontalStack=0;resizeParent=1;resizeLast=0;collapsible=1;marginBottom=0;rounded=0;shadow=0;strokeWidth=1;" vertex="1" parent="WIyWlLk6GJQsqaUBKTNV-1">
          <mxGeometry x="-750" y="-950" width="160" height="50" as="geometry">
            <mxRectangle x="230" y="140" width="160" height="26" as="alternateBounds" />
          </mxGeometry>
        </mxCell>
        <mxCell id="CMHXz8UwtuGH-618SURG-32" value="RegistroTop10" style="text;html=1;align=center;verticalAlign=middle;resizable=0;points=[];autosize=1;strokeColor=none;fillColor=none;" vertex="1" parent="WIyWlLk6GJQsqaUBKTNV-1">
          <mxGeometry x="-580" y="-948" width="100" height="30" as="geometry" />
        </mxCell>
        <mxCell id="CMHXz8UwtuGH-618SURG-34" value="top 10" style="text;html=1;align=center;verticalAlign=middle;resizable=0;points=[];autosize=1;strokeColor=none;fillColor=none;" vertex="1" parent="WIyWlLk6GJQsqaUBKTNV-1">
          <mxGeometry x="-390" y="-588" width="60" height="30" as="geometry" />
        </mxCell>
      </root>
    </mxGraphModel>
  </diagram>
</mxfile>
